<!-- icon666.com - MILLIONS vector ICONS FREE --><svg id="Capa_1" enable-background="new 0 0 512 512" viewBox="0 0 512 512" xmlns="http://www.w3.org/2000/svg"><g><path d="m481 328.566-30-90v-32.107l-30-45v-25.459h-30v25.458l-30 45v32.107l-6.957 20.869-23.043-24.398v-26.47l-30-90v-32.108l-30-45v-25.458h-30v25.458l-30 45v32.107l-30 90v26.47l-23.043 24.399-6.957-20.868v-32.107l-30-45v-25.459h-30v25.458l-30 45v32.107l-30 90v86.076l-31 30v51.359h512v-51.358l-31-30c0-18.544 0-68.804 0-86.076zm-90-113.024 15-22.5 15 22.5v10.458h-30zm-4.189 40.458h38.377l10 30h-58.377zm-25.811 77.434 5.811-17.434h78.377l5.812 17.434v12.566h-90zm90 42.566v30h-60v-30zm-90 0v30h-60v-30zm-120-280.458 15-22.5 15 22.5v10.458h-30zm-4.189 40.458h38.377l10 30h-58.377zm-25.811 77.434 5.811-17.434h78.377l5.812 17.434v12.566h-90zm-8.534 42.566h107.068l33.745 35.73-12.279 36.836v17.434h-30v-30h-90v30h-30v-17.434l-12.279-36.836zm68.534 90v60h-30v-60zm-60 30v30h-60v-30zm-120-160.458 15-22.5 15 22.5v10.458h-30zm-4.189 40.458h38.377l10 30h-58.377zm-25.811 77.434 5.811-17.434h78.377l5.812 17.434v12.566h-90zm0 42.566h60v30h-60zm421 81.358v8.642h-452v-8.642l22.07-21.358h407.861z"></path></g></svg>